<svg id="Layer_1" data-name="Layer 1" xmlns="http://www.w3.org/2000/svg" viewBox="0 0 130.4 130.4"><defs><style>.cls-1{fill:#be1e2d;}</style></defs><title>error</title><path class="cls-1" d="M65.2,0a65.2,65.2,0,1,0,65.2,65.2A65.2,65.2,0,0,0,65.2,0ZM40.9,57.36a5.56,5.56,0,0,1-2.41-1.56,7.74,7.74,0,0,1-2.2-5.3v-.18a7.78,7.78,0,0,1,2.2-5.3,7.6,7.6,0,0,1,5.3-2.2,5.76,5.76,0,0,1,2.89.65A5.6,5.6,0,0,1,49.09,45a7.74,7.74,0,0,1,2.2,5.3v.18a7.77,7.77,0,0,1-2.2,5.3,7.55,7.55,0,0,1-5.3,2.2A5.63,5.63,0,0,1,40.9,57.36ZM71.79,92.24a6.8,6.8,0,0,0-13.19.08c-2.74,9.25-17.22,5.29-14.47-4s11.12-16.4,21-16.41S83.46,79,86.26,88.26,74.58,101.46,71.79,92.24ZM94.11,58.09a7.83,7.83,0,0,1-2.19,5.31,7.57,7.57,0,0,1-5.31,2.19A5.65,5.65,0,0,1,83.72,65a5.6,5.6,0,0,1-2.41-1.55,7.74,7.74,0,0,1-2.2-5.31v-.17a7.81,7.81,0,0,1,2.2-5.31,7.54,7.54,0,0,1,5.3-2.19,5.61,5.61,0,0,1,2.89.64,5.73,5.73,0,0,1,2.42,1.55,7.73,7.73,0,0,1,2.19,5.31Z"/></svg>